<?xml version="1.0" encoding="utf-8"?>
<!-- Generator: Adobe Illustrator 19.0.0, SVG Export Plug-In . SVG Version: 6.00 Build 0)  -->
<svg version="1.1" id="Isolation_Mode" xmlns="http://www.w3.org/2000/svg" xmlns:xlink="http://www.w3.org/1999/xlink" x="0px"
	 y="0px" viewBox="0 0 61.4 78.1" style="enable-background:new 0 0 61.4 78.1;" xml:space="preserve">
<style type="text/css">
	.st0{fill:#60489D;}
	.st1{fill:#034EA2;}
	.st2{fill:#40B5E7;}
	.st3{fill:#F7943E;}
	.st4{fill:#50B848;}
	.st5{fill:#ED2290;}
	.st6{fill:#ED1C24;}
</style>
<g>
	<path class="st0" d="M18,74.1c-0.1-0.1-0.2-0.2-0.3-0.3c-0.1-0.1-0.2-0.1-0.4,0c-0.1,0-0.2,0.1-0.3,0.2c-0.1,0.1-0.2,0.2-0.2,0.3
		L16,77.1c0,0.1,0,0.2,0,0.4c0,0.1,0.1,0.3,0.2,0.4c0.2,0.2,0.4,0.2,0.6,0.2c0.2,0,0.3-0.1,0.4-0.3c0.1-0.1,0.1-0.2,0.1-0.4l1.2-0.2
		c0.1,0.2,0.2,0.3,0.4,0.4c0.1,0.1,0.2,0.1,0.4,0.1c0.2,0,0.4-0.1,0.5-0.3c0.1-0.1,0.1-0.3,0.1-0.4c0-0.1-0.1-0.2-0.1-0.3L18,74.1z
		 M17.7,75.4C17.7,75.4,17.8,75.4,17.7,75.4c0.1,0,0.1,0,0.2,0l0.5,0.7c0,0,0,0.1,0,0.1c0,0.1,0,0.1-0.1,0.1c0,0-0.1,0-0.1-0.1
		l-0.5-0.7C17.7,75.6,17.7,75.5,17.7,75.4C17.7,75.5,17.7,75.5,17.7,75.4C17.7,75.5,17.7,75.5,17.7,75.4 M17.7,75.9l0.3,0.4
		l-0.4,0.1L17.7,75.9z M17.1,74.2C17.1,74.2,17.1,74.2,17.1,74.2c0.1-0.1,0.1,0,0.2,0c0,0,0,0,0,0.1c0,0,0,0.1,0,0.1c0,0,0,0-0.1,0
		c0,0-0.1,0-0.1,0C17.1,74.4,17,74.4,17.1,74.2C17,74.3,17,74.3,17.1,74.2 M17.1,74.7l-0.7,2.5c0,0.1,0,0.1,0,0.2
		c0,0.1,0.1,0.2,0.2,0.2c0.1,0,0.1,0,0.1,0c0,0,0,0,0,0.1c0,0,0,0.1,0,0.1c0,0,0,0-0.1,0c0,0-0.1,0-0.2,0c-0.1,0-0.1-0.1-0.2-0.1
		c-0.1-0.1-0.1-0.1-0.1-0.2c0-0.1,0-0.2,0-0.2l0.7-2.6c0-0.1,0.1-0.1,0.1-0.1C17.1,74.5,17.1,74.5,17.1,74.7
		C17.1,74.6,17.1,74.7,17.1,74.7 M19.2,77.4c-0.1,0-0.1,0-0.2,0c-0.1,0-0.1-0.1-0.2-0.3C18.7,77,18.6,77,18.6,77c0,0-0.1,0-0.2,0
		l-1,0.2c-0.1,0-0.1,0-0.1-0.1c0-0.1,0-0.1,0.1-0.1l1-0.2c0.2,0,0.3,0,0.3,0c0.1,0,0.2,0.1,0.2,0.2l0.1,0.1c0,0,0.1,0,0.1,0
		c0,0,0.1,0,0.1,0c0,0,0,0,0,0.1C19.3,77.4,19.3,77.4,19.2,77.4 M24.6,76.2c0,0,0-0.1,0-0.1l-0.8-2.5c-0.1-0.2-0.1-0.3-0.3-0.4
		C23.5,73,23.3,73,23.1,73c-0.1,0-0.2,0.1-0.3,0.1c-0.1,0.1-0.2,0.2-0.2,0.3l-0.5,1.5l-0.8-1.2c-0.1-0.1-0.2-0.2-0.3-0.3
		c-0.1-0.1-0.3-0.1-0.4-0.1c-0.2,0-0.3,0.1-0.4,0.2c-0.1,0.1-0.2,0.3-0.2,0.5l-0.1,2.6c0,0,0,0.1,0,0.2c0,0.2,0.1,0.3,0.2,0.4
		c0.1,0.1,0.2,0.1,0.3,0.2c0.1,0,0.2,0.1,0.3,0c0.2,0,0.3-0.1,0.4-0.2c0.1-0.1,0.1-0.3,0.2-0.5l0-0.6l0.3,0.7
		c0.2,0.3,0.4,0.5,0.7,0.4c0.3,0,0.5-0.2,0.6-0.6l0.2-0.7l0.2,0.7c0,0.1,0.1,0.3,0.3,0.3c0.1,0.1,0.3,0.1,0.4,0.1
		c0.2,0,0.3-0.1,0.4-0.2c0.1-0.1,0.2-0.3,0.1-0.5C24.7,76.2,24.7,76.2,24.6,76.2 M20.4,73.7C20.4,73.7,20.4,73.7,20.4,73.7
		c0.1,0,0.1,0,0.2,0c0,0,0,0,0,0.1c0,0,0,0.1,0,0.1c0,0,0,0-0.1,0c0,0-0.1,0-0.1,0C20.4,73.8,20.4,73.8,20.4,73.7
		C20.4,73.8,20.4,73.7,20.4,73.7 M20.6,77.2c-0.1,0-0.2,0-0.3-0.1c-0.1-0.1-0.1-0.2-0.1-0.3c0,0,0-0.1,0-0.2l0.1-2.5
		c0-0.1,0-0.1,0.1-0.1c0.1,0,0.1,0,0.1,0.1v0.1l-0.1,2.5c0,0,0,0.1,0,0.1c0,0.1,0,0.1,0.1,0.1c0,0,0.1,0,0.1,0c0.1,0,0.1,0,0.1,0
		c0,0,0,0,0,0.1C20.8,77.1,20.7,77.2,20.6,77.2 M22.3,77c-0.1,0-0.2,0-0.3-0.1c-0.1-0.1-0.1-0.1-0.2-0.3l-0.5-0.9c0,0,0-0.1,0-0.1
		c0,0,0,0,0-0.1c0,0,0,0,0.1,0c0,0,0.1,0,0.1,0.1l0.5,0.9c0.1,0.1,0.2,0.2,0.2,0.2c0.1,0,0.1,0,0.1,0c0,0,0,0,0,0.1
		C22.4,76.9,22.4,77,22.3,77 M22.9,73.9l-0.4,1.3c0,0.1-0.1,0.1-0.1,0.1c-0.1,0-0.1,0-0.1-0.1c0,0,0-0.1,0-0.1l0.4-1.3
		c0-0.1,0.1-0.1,0.1-0.1c0,0,0.1,0,0.1,0c0,0,0,0,0,0.1C22.9,73.8,22.9,73.8,22.9,73.9 M23,73.6C23,73.6,22.9,73.6,23,73.6
		c-0.1,0-0.1,0-0.2,0c0,0,0,0,0-0.1c0,0,0-0.1,0-0.1c0,0,0,0,0.1,0c0,0,0.1,0,0.1,0C23,73.4,23,73.5,23,73.6
		C23,73.5,23,73.5,23,73.6 M24,76.8c-0.1,0-0.2,0-0.3-0.1c-0.1-0.1-0.1-0.1-0.2-0.3l-0.3-1l0-0.1c0-0.1,0-0.1,0.1-0.1
		c0.1,0,0.1,0,0.1,0.1l0.3,0.9c0,0.1,0.1,0.2,0.2,0.2c0.1,0,0.1,0,0.2,0.1C24.1,76.7,24.1,76.8,24,76.8 M27.1,73
		c-0.1-0.1-0.2-0.2-0.3-0.3c-0.1-0.1-0.2-0.1-0.4-0.1c-0.1,0-0.3,0.1-0.4,0.1C26,72.9,26,73,25.9,73.1l-1,2.8c0,0.1-0.1,0.2-0.1,0.4
		c0,0.1,0.1,0.3,0.1,0.4c0.1,0.2,0.3,0.3,0.6,0.2c0.2,0,0.3-0.1,0.5-0.3c0.1-0.1,0.1-0.2,0.2-0.3l1.2-0.1c0.1,0.2,0.2,0.3,0.3,0.4
		c0.1,0.1,0.2,0.1,0.4,0.1c0.2,0,0.4-0.1,0.5-0.3c0.1-0.1,0.1-0.3,0.1-0.4c0-0.1,0-0.2-0.1-0.3L27.1,73z M26.8,74.3
		C26.8,74.3,26.8,74.3,26.8,74.3c0.1,0,0.1,0,0.2,0l0.4,0.8c0,0,0,0.1,0,0.1c0,0.1,0,0.1-0.1,0.1c0,0-0.1,0-0.1-0.1l-0.4-0.8
		C26.8,74.5,26.8,74.4,26.8,74.3C26.7,74.4,26.7,74.4,26.8,74.3C26.7,74.4,26.7,74.4,26.8,74.3 M26.7,74.8l0.2,0.5l-0.4,0L26.7,74.8
		z M26.2,73.1C26.2,73.1,26.2,73.1,26.2,73.1c0.1,0,0.1,0,0.2,0c0,0,0,0,0,0.1c0,0,0,0.1,0,0.1c0,0,0,0-0.1,0c0,0-0.1,0-0.1,0
		C26.2,73.2,26.2,73.2,26.2,73.1C26.2,73.1,26.2,73.1,26.2,73.1 M25.3,76c0,0.1,0,0.1,0,0.2c0,0.1,0.1,0.2,0.2,0.2
		c0.1,0,0.1,0,0.1,0c0,0,0,0,0,0.1c0,0,0,0.1,0,0.1c0,0,0,0-0.1,0c-0.1,0-0.1,0-0.2,0c-0.1,0-0.1-0.1-0.1-0.1
		c-0.1-0.1-0.1-0.1-0.1-0.2c0-0.1,0-0.2,0-0.2l0.9-2.5c0-0.1,0.1-0.1,0.1-0.1c0.1,0,0.1,0,0.1,0.1c0,0,0,0.1,0,0.1L25.3,76z
		 M28.1,76.4c-0.1,0-0.1,0-0.2-0.1c-0.1,0-0.1-0.1-0.2-0.3c0-0.1-0.1-0.1-0.1-0.1c0,0-0.1,0-0.2,0L26.2,76c-0.1,0-0.1,0-0.1-0.1
		c0-0.1,0-0.1,0.1-0.1l1-0.1c0.2,0,0.3,0,0.3,0c0.1,0,0.1,0.1,0.2,0.2l0.1,0.1c0,0,0.1,0,0.1,0c0,0,0.1,0,0.1,0c0,0,0,0,0,0.1
		C28.2,76.4,28.1,76.4,28.1,76.4 M32,75.3c-0.1-0.1-0.1-0.1-0.2-0.1c-0.1,0-0.2,0-0.3,0l-0.7,0l1.1-1.7c0.1-0.1,0.1-0.2,0.1-0.3
		c0-0.1,0-0.1,0-0.2c0-0.1,0-0.2-0.1-0.3c-0.1-0.1-0.1-0.2-0.2-0.2c-0.1-0.1-0.3-0.1-0.6-0.1l-1.8,0.1c-0.2,0-0.4,0.1-0.5,0.2
		c-0.1,0.1-0.2,0.3-0.2,0.5c0,0.2,0.1,0.3,0.2,0.4c0.1,0.1,0.3,0.1,0.5,0.1l0.7,0L29,75.5c-0.1,0.1-0.1,0.3-0.1,0.4c0,0,0,0.1,0,0.1
		c0,0,0,0.1,0.1,0.1c0.1,0.1,0.1,0.2,0.2,0.2c0.1,0.1,0.3,0.1,0.4,0.1l1.9-0.1c0.1,0,0.3,0,0.3,0c0.1,0,0.1-0.1,0.2-0.1
		c0.1-0.1,0.2-0.3,0.2-0.5C32.2,75.5,32.1,75.4,32,75.3 M29,72.9C29.1,72.8,29.1,72.8,29,72.9c0.2,0,0.2,0,0.2,0.1c0,0,0,0.1,0,0.1
		c0,0-0.1,0-0.1,0c0,0-0.1,0-0.1,0C29,73,29,73,29,72.9C29,72.9,29,72.9,29,72.9 M30.1,73.5l-0.6,0c-0.1,0-0.1,0-0.2,0
		c0,0-0.1,0-0.1,0c-0.1,0-0.1,0-0.2-0.1C29,73.4,29,73.3,29,73.2c0-0.1,0-0.1,0.1-0.1c0,0,0,0,0.1,0c0.1,0.1,0.1,0.1,0.2,0.1
		c0,0,0.1,0,0.2,0l0.6,0c0.1,0,0.2,0,0.2,0.1C30.3,73.4,30.2,73.5,30.1,73.5 M29.4,75.8c0,0.1,0,0.1,0,0.1l0,0.1c0,0,0,0.1,0,0.1
		c0,0,0,0,0,0.1c0,0,0,0-0.1,0c0,0-0.1,0-0.1-0.1c0,0,0-0.1-0.1-0.2c0-0.1,0-0.2,0.1-0.3l1.1-1.8c0-0.1,0.1-0.1,0.1-0.2
		c0,0,0-0.1,0-0.1l0-0.1c0,0,0,0,0-0.1c0,0,0,0,0.1,0c0,0,0.1,0,0.1,0.1c0,0,0.1,0.1,0.1,0.2c0,0.1,0,0.2-0.1,0.3L29.4,75.8z
		 M31.5,76.2l-1.4,0.1c-0.1,0-0.2,0-0.2-0.1c0-0.1,0-0.1,0.2-0.1l1.5-0.1c0.1,0,0.1,0,0.2,0c0,0,0.1,0,0.1,0c0,0,0,0,0.1,0
		c0,0,0,0,0,0.1C31.9,76.1,31.8,76.1,31.5,76.2 M33.9,72.7c0-0.1-0.1-0.2-0.1-0.2c-0.1-0.1-0.3-0.2-0.5-0.2c-0.2,0-0.4,0.1-0.5,0.2
		c-0.1,0.1-0.1,0.2-0.1,0.2c0,0.1,0,0.2,0,0.4l0.1,2.5c0,0.1,0,0.2,0,0.3c0,0.1,0.1,0.2,0.1,0.2c0.1,0.1,0.3,0.2,0.5,0.2
		c0.2,0,0.4-0.1,0.5-0.2c0.1-0.1,0.2-0.3,0.2-0.5L34,73.1C34,72.9,34,72.8,33.9,72.7 M33,72.7C33,72.6,33.1,72.6,33,72.7
		c0.1,0,0.1,0,0.2,0c0,0,0,0.1,0,0.1c0,0,0,0.1,0,0.1c0,0-0.1,0-0.1,0c0,0-0.1,0-0.1,0C33,72.8,33,72.8,33,72.7
		C33,72.7,33,72.7,33,72.7 M33.4,76.1c-0.1,0-0.1,0-0.2-0.1c-0.1,0-0.1-0.1-0.1-0.2c0-0.1,0-0.2-0.1-0.3l-0.1-2.5c0-0.1,0-0.1,0-0.1
		c0,0,0,0,0.1,0c0.1,0,0.1,0,0.1,0.1l0.1,2.5c0,0.1,0,0.2,0,0.3c0,0,0.1,0.1,0.1,0.1c0.1,0,0.1,0,0.1,0c0,0,0,0,0,0.1
		C33.5,76.1,33.5,76.1,33.4,76.1 M38.3,72.7c0-0.1-0.1-0.1-0.1-0.2c-0.1-0.2-0.3-0.2-0.5-0.2c-0.1,0-0.2,0-0.3,0.1
		c-0.1,0.1-0.2,0.1-0.2,0.2c0,0.1-0.1,0.1-0.1,0.2c0,0.1,0,0.2,0,0.3l0,0.7l-1.1-1.3c-0.1-0.2-0.3-0.3-0.5-0.3
		c-0.2,0-0.4,0.1-0.5,0.2c-0.1,0.1-0.2,0.3-0.2,0.5l0,2.5c0,0.1,0,0.1,0,0.2c0,0.1,0,0.1,0,0.1c0,0.1,0.1,0.2,0.1,0.2
		c0.1,0.2,0.3,0.3,0.5,0.3c0.2,0,0.4-0.1,0.5-0.2C36,76,36,75.9,36,75.8c0,0,0-0.1,0-0.1c0,0,0-0.1,0-0.2l0-0.8l1.1,1.3
		c0.1,0.2,0.3,0.3,0.5,0.3c0.2,0,0.4-0.1,0.5-0.3c0.1-0.1,0.1-0.2,0.1-0.2c0-0.1,0-0.2,0-0.4l0-2.5C38.3,72.9,38.3,72.8,38.3,72.7
		 M35.1,72.6C35.1,72.6,35.1,72.6,35.1,72.6c0.1,0,0.1,0,0.2,0c0,0,0,0.1,0,0.1c0,0,0,0.1,0,0.1c0,0,0,0-0.1,0c0,0-0.1,0-0.1,0
		C35.1,72.7,35,72.7,35.1,72.6C35,72.6,35.1,72.6,35.1,72.6 M35.4,76.1c-0.1,0-0.2,0-0.3-0.1c-0.1,0-0.1-0.1-0.1-0.2
		c0-0.1,0-0.1,0-0.3l0-2.5c0-0.1,0-0.1,0-0.1c0,0,0,0,0.1,0c0.1,0,0.1,0.1,0.1,0.2l0,2.4c0,0.2,0,0.3,0.1,0.4c0.1,0,0.1,0,0.2,0.1
		c0,0,0,0,0,0.1C35.5,76,35.5,76.1,35.4,76.1 M37.3,72.6C37.3,72.5,37.4,72.5,37.3,72.6c0.1,0,0.1,0,0.2,0c0,0,0,0,0,0.1
		c0,0,0,0.1,0,0.1c0,0-0.1,0-0.1,0c0,0-0.1,0-0.1,0C37.3,72.7,37.3,72.7,37.3,72.6C37.3,72.6,37.3,72.6,37.3,72.6 M37.3,72.9
		c0.1,0,0.1,0,0.1,0.1l0,1c0,0.1,0,0.2-0.1,0.2c-0.1,0-0.1,0-0.1-0.1l0-1C37.2,72.9,37.2,72.9,37.3,72.9 M37.6,76
		c-0.1,0-0.2-0.1-0.3-0.2l-1.2-1.5c0,0,0-0.1,0-0.1c0,0,0,0,0-0.1c0,0,0,0,0.1,0c0,0,0.1,0,0.1,0.1l1.2,1.4c0.1,0.1,0.1,0.1,0.2,0.1
		c0.1,0,0.1,0,0.1,0c0,0,0,0,0,0.1C37.7,76,37.7,76,37.6,76 M42.2,74.1c-0.1,0-0.2,0-0.2,0c0,0-0.1,0-0.3,0c-0.2,0-0.3,0-0.4,0
		c-0.2,0-0.4,0-0.5,0.1c-0.1,0.1-0.2,0.2-0.2,0.4c0,0.1,0,0.2,0.1,0.3c0,0.1,0.1,0.1,0.2,0.2c0.1,0,0.2,0.1,0.3,0.1l0.2,0
		c-0.2,0.1-0.3,0.1-0.5,0.1c-0.2,0-0.4-0.1-0.5-0.2c-0.1-0.2-0.2-0.3-0.2-0.6c0-0.2,0.1-0.4,0.2-0.5c0.2-0.2,0.3-0.2,0.5-0.2
		c0.1,0,0.1,0,0.2,0c0.1,0,0.1,0.1,0.2,0.1l0.3,0.2c0,0,0.1,0,0.1,0c0.2,0,0.3-0.1,0.5-0.2c0.1-0.1,0.2-0.3,0.2-0.5
		c0-0.2-0.1-0.5-0.4-0.6c-0.3-0.2-0.7-0.3-1.1-0.4c-0.3,0-0.6,0.1-0.9,0.2c-0.4,0.2-0.6,0.4-0.9,0.7c-0.2,0.3-0.4,0.7-0.4,1.1
		c0,0.3,0.1,0.7,0.2,1c0.1,0.3,0.3,0.5,0.5,0.7c0.4,0.3,0.8,0.5,1.3,0.5c0.4,0,0.8-0.1,1.2-0.3c0.2-0.1,0.3-0.2,0.3-0.3
		c0.1-0.1,0.1-0.2,0.1-0.4c0,0,0-0.1,0-0.2c0-0.1,0-0.3,0-0.4c0-0.3-0.1-0.5-0.2-0.6C42.4,74.1,42.3,74.1,42.2,74.1 M40.6,73.2
		c0.1,0,0.1,0,0.2-0.1c0.1,0,0.1,0,0.2,0c0.2,0,0.5,0.1,0.7,0.2c0.1,0,0.1,0.1,0.1,0.1c0,0,0.1,0,0.1,0c0.1,0,0.1,0,0.1,0
		c0,0,0.1,0,0.1,0c0,0,0,0,0,0.1c0,0.1,0,0.1-0.1,0.1c-0.1,0-0.1,0.1-0.2,0.1c0,0-0.1,0-0.1,0l-0.2-0.1c-0.2-0.1-0.4-0.2-0.5-0.2
		c-0.2,0-0.3,0-0.4,0.1c-0.1,0-0.1,0-0.1,0c-0.1,0-0.1,0-0.1-0.1C40.4,73.3,40.4,73.2,40.6,73.2 M41.4,74.7l-0.2,0
		c-0.1,0-0.2,0-0.2-0.1c-0.1,0-0.1-0.1-0.1-0.2c0,0,0-0.1,0-0.1c0,0,0,0,0-0.1c0,0,0.1-0.1,0.1-0.1c0.1,0,0.1,0,0.1,0.1
		c0,0,0,0,0,0.1c0,0,0,0,0,0c0,0,0,0,0,0c0,0,0,0,0.1,0l0.2,0c0.1,0,0.3,0,0.3,0.1c0,0,0.1,0.1,0.1,0.1c0,0.1,0,0.1,0,0.2
		c0,0.1,0,0.1-0.1,0.1c0,0-0.1,0-0.1-0.1c0-0.1-0.1-0.2-0.1-0.2C41.6,74.8,41.5,74.7,41.4,74.7 M39.7,73C39.7,73,39.7,73,39.7,73
		c0.1,0,0.1,0,0.2,0c0,0,0,0.1,0,0.1c0,0,0,0.1,0,0.1c0,0-0.1,0-0.1,0c0,0-0.1,0-0.1,0C39.7,73.1,39.6,73.1,39.7,73
		C39.7,73,39.7,73,39.7,73 M41.6,76.1c-0.2,0.1-0.4,0.1-0.6,0.1c-0.2,0-0.5-0.1-0.7-0.2c-0.2-0.1-0.4-0.2-0.6-0.4
		c-0.4-0.4-0.5-0.8-0.5-1.4c0-0.3,0.1-0.6,0.3-0.9c0.1-0.1,0.1-0.1,0.1-0.1c0.1,0,0.1,0,0.1,0.1c0,0,0,0.1,0,0.1
		c-0.1,0.2-0.2,0.3-0.2,0.4c0,0.1-0.1,0.3-0.1,0.4c0,0.5,0.2,0.9,0.5,1.2c0.3,0.3,0.7,0.5,1.1,0.5c0.3,0,0.5-0.1,0.8-0.2
		c0,0,0.1,0,0.1,0c0.1,0,0.1,0,0.1,0.1C41.9,76,41.8,76,41.6,76.1 M47.7,73.3c-0.2-0.3-0.4-0.5-0.7-0.6c-0.2-0.1-0.4-0.1-0.8-0.1
		l-0.6,0c-0.2,0-0.4,0-0.5,0.2C45,72.8,45,72.9,45,72.9c0,0.1,0,0.2-0.1,0.3l-0.2,2.3c0,0.2,0,0.3,0,0.4c0,0.1,0,0.1,0.1,0.2
		c0.1,0.1,0.1,0.2,0.2,0.2c0.1,0.1,0.2,0.1,0.3,0.1c0.2,0,0.3,0,0.5-0.2c0.1-0.1,0.2-0.3,0.2-0.6l0-0.4l0.2,0c0.6,0,1-0.1,1.3-0.5
		c0.2-0.2,0.3-0.5,0.3-0.8C47.9,73.8,47.9,73.6,47.7,73.3 M45.3,76.3c-0.1,0-0.2,0-0.2-0.1C45,76.2,45,76.1,45,76c0-0.1,0-0.2,0-0.3
		l0.2-2.5c0-0.1,0-0.1,0.1-0.1c0.1,0,0.1,0.1,0.1,0.2l-0.2,2.5c0,0.1,0,0.2,0,0.2c0,0.1,0.1,0.1,0.1,0.1c0.1,0,0.1,0,0.1,0.1
		c0,0,0,0,0,0.1C45.4,76.3,45.4,76.3,45.3,76.3 M45.4,73C45.4,73.1,45.4,73.1,45.4,73c-0.1,0-0.1,0-0.2,0c0,0,0-0.1,0-0.1
		c0,0,0-0.1,0-0.1c0,0,0.1,0,0.1,0C45.4,72.8,45.5,72.9,45.4,73C45.5,73,45.5,73,45.4,73 M46.2,73.4c0,0,0.1,0,0.2,0
		c0.2,0,0.4,0.1,0.5,0.2c0.2,0.1,0.2,0.3,0.2,0.5c0,0.1,0,0.2-0.1,0.2c-0.1,0-0.1-0.1-0.1-0.1c0-0.2,0-0.3-0.1-0.4
		c-0.1-0.1-0.2-0.1-0.4-0.1C46.2,73.6,46.1,73.6,46.2,73.4C46.1,73.5,46.2,73.4,46.2,73.4 M46.6,74c0,0.1,0,0.1-0.1,0.2
		c0,0-0.1,0-0.3,0l-0.1,0l0-0.4l0.1,0c0.1,0,0.2,0,0.2,0.1C46.6,73.9,46.6,74,46.6,74 M47,75.1c-0.1,0.1-0.2,0.1-0.3,0.1
		c-0.1,0-0.1,0-0.2,0c-0.1,0-0.2,0-0.2,0c-0.1,0-0.2,0-0.2-0.1c0-0.1,0-0.1,0.1-0.1l0,0l0.1,0c0.3,0,0.5,0,0.7-0.2
		c0.1,0,0.1-0.1,0.1-0.1c0.1,0,0.1,0,0.1,0.1C47.2,75,47.1,75.1,47,75.1 M50.5,73.3c0-0.1-0.1-0.2-0.2-0.3c-0.1-0.1-0.2-0.1-0.4-0.1
		c-0.1,0-0.3,0-0.4,0.1c-0.1,0.1-0.2,0.1-0.3,0.3l-1.5,2.5c-0.1,0.1-0.1,0.2-0.1,0.3c0,0.1,0,0.3,0.1,0.4c0.1,0.2,0.3,0.3,0.5,0.3
		c0.2,0,0.4,0,0.5-0.2c0.1-0.1,0.1-0.2,0.2-0.3l1.2,0.1c0.1,0.2,0.2,0.4,0.2,0.5c0.1,0.1,0.2,0.1,0.4,0.2c0.2,0,0.4,0,0.5-0.2
		c0.1-0.1,0.2-0.2,0.2-0.4c0-0.1,0-0.2,0-0.3L50.5,73.3z M49.9,74.6C49.9,74.6,49.9,74.5,49.9,74.6c0.1-0.1,0.1-0.1,0.1-0.1
		c0,0,0.1,0,0.1,0.1l0.3,0.8c0,0,0,0.1,0,0.1c0,0.1,0,0.1-0.1,0.1c0,0-0.1,0-0.1-0.1L49.9,74.6C49.9,74.6,49.9,74.6,49.9,74.6
		C49.9,74.6,49.9,74.6,49.9,74.6 M49.9,75.4l-0.4,0l0.3-0.5L49.9,75.4z M49.6,73.2C49.6,73.2,49.7,73.2,49.6,73.2c0.1,0,0.1,0,0.2,0
		c0,0,0,0.1,0,0.1c0,0,0,0.1,0,0.1c0,0-0.1,0-0.1,0c0,0-0.1,0-0.1,0C49.6,73.3,49.5,73.3,49.6,73.2C49.6,73.3,49.6,73.2,49.6,73.2
		 M48.2,75.9c0,0.1-0.1,0.1-0.1,0.2c0,0.1,0,0.2,0.1,0.2c0.1,0,0.1,0,0.1,0.1c0,0,0,0,0,0.1c0,0,0,0.1,0,0.1c0,0,0,0-0.1,0
		c0,0-0.1,0-0.1-0.1c-0.1,0-0.1-0.1-0.1-0.1c0-0.1-0.1-0.2,0-0.3c0-0.1,0-0.2,0.1-0.2l1.4-2.3c0-0.1,0.1-0.1,0.1-0.1
		c0.1,0,0.1,0,0.1,0.1c0,0,0,0.1,0,0.1L48.2,75.9z M50.8,76.8c-0.1,0-0.1,0-0.2-0.1c0-0.1-0.1-0.2-0.2-0.3c0-0.1-0.1-0.1-0.1-0.2
		c0,0-0.1,0-0.2-0.1l-1-0.1c-0.1,0-0.1,0-0.1-0.1c0-0.1,0.1-0.1,0.1-0.1l1,0.1c0.2,0,0.3,0,0.3,0.1c0.1,0,0.1,0.1,0.2,0.3l0.1,0.2
		c0,0,0,0,0.1,0.1c0,0,0.1,0,0.1,0c0,0,0,0,0,0.1C51,76.8,50.9,76.8,50.8,76.8 M54.7,73.7c-0.2-0.2-0.5-0.3-0.7-0.3l-0.8-0.1
		c-0.3,0-0.5,0-0.6,0.1c-0.1,0.1-0.2,0.3-0.3,0.5l-0.3,2.4c0,0.2,0,0.4,0.1,0.6c0.1,0.2,0.3,0.3,0.5,0.3c0.2,0,0.3,0,0.5-0.1
		c0.1-0.1,0.2-0.3,0.3-0.4l0.1-0.5l0.4,1c0.1,0.2,0.3,0.3,0.5,0.4c0.2,0,0.3,0,0.5-0.1c0.1-0.1,0.2-0.2,0.2-0.4c0-0.1,0-0.3-0.1-0.4
		l-0.2-0.5c0.2-0.1,0.3-0.3,0.4-0.4c0.1-0.1,0.1-0.3,0.2-0.5c0-0.2,0-0.4,0-0.6C55.1,74.1,54.9,73.9,54.7,73.7 M52.3,76.7
		c0,0.1,0.1,0.1,0.1,0.1c0.1,0,0.1,0,0.1,0.1c0,0,0,0,0,0.1c0,0.1-0.1,0.1-0.2,0.1c-0.1,0-0.2-0.1-0.3-0.2c-0.1-0.1-0.1-0.2,0-0.4
		l0.3-2.4c0-0.1,0.1-0.2,0.1-0.2c0.1,0,0.1,0.1,0.1,0.2l-0.3,2.4C52.3,76.5,52.3,76.6,52.3,76.7 M52.8,73.7
		C52.7,73.7,52.7,73.7,52.8,73.7c-0.1,0-0.1,0-0.2,0c0,0,0-0.1,0-0.1c0,0,0-0.1,0-0.1c0,0,0.1,0,0.1,0c0,0,0.1,0,0.1,0
		C52.8,73.6,52.8,73.6,52.8,73.7C52.8,73.7,52.8,73.7,52.8,73.7 M53.5,74.1c0,0,0.1,0,0.2,0c0.2,0,0.4,0.1,0.5,0.2
		c0.1,0.1,0.2,0.3,0.2,0.6c0,0.1-0.1,0.2-0.1,0.1c-0.1,0-0.1-0.1-0.1-0.1c0-0.1,0-0.2,0-0.3c0-0.1-0.1-0.1-0.2-0.2
		c-0.1,0-0.2-0.1-0.3-0.1c-0.1,0-0.1,0-0.1,0C53.4,74.3,53.4,74.3,53.5,74.1C53.4,74.2,53.5,74.1,53.5,74.1 M53.5,74.5
		c0.1,0,0.1,0,0.2,0c0.1,0,0.1,0,0.1,0c0,0,0.1,0.1,0.1,0.1c0,0,0,0.1,0,0.1c0,0.1-0.1,0.2-0.3,0.2l-0.1,0L53.5,74.5z M54.2,77.2
		c-0.1,0-0.1,0-0.2-0.1c-0.1-0.1-0.1-0.1-0.2-0.3l-0.5-1.1c0,0,0-0.1,0-0.1c0-0.1,0-0.1,0.1-0.1c0,0,0.1,0,0.1,0.1l0.5,1.1
		c0,0.1,0.1,0.2,0.2,0.2c0.1,0,0.1,0.1,0.1,0.1C54.4,77.2,54.3,77.2,54.2,77.2 M59,74.3c-0.1-0.2-0.3-0.2-0.4-0.3
		c-0.2,0-0.4,0-0.6,0.2l-0.9,0.9l0.1-0.6c0-0.1,0-0.3,0-0.3c0-0.1,0-0.1-0.1-0.2c-0.1-0.2-0.3-0.3-0.5-0.3c-0.2,0-0.4,0-0.5,0.1
		C56,74,56,74.1,55.9,74.4l-0.4,2.5c0,0.2,0,0.4,0.1,0.6c0.1,0.2,0.2,0.2,0.4,0.3c0.2,0,0.4,0,0.6-0.2c0.1-0.1,0.1-0.1,0.1-0.2
		c0-0.1,0-0.1,0.1-0.3l0.1-0.7l0.8,1.4c0.1,0.1,0.2,0.2,0.4,0.3c0.2,0,0.3,0,0.5-0.1c0.1-0.1,0.2-0.3,0.3-0.4c0-0.1,0-0.3-0.1-0.4
		L58.2,76l0.8-0.9c0.1-0.1,0.1-0.2,0.2-0.3C59.2,74.6,59.2,74.5,59,74.3 M55.9,76.9c0,0.1,0,0.1,0,0.2c0,0,0,0.1,0,0.1
		c0,0.1,0,0.1,0.1,0.1c0.1,0,0.1,0.1,0.1,0.1c0,0,0,0,0,0.1c0,0.1-0.1,0.1-0.1,0.1c-0.1,0-0.2-0.1-0.3-0.2c0,0,0-0.1,0-0.1
		c0,0,0-0.1,0-0.1c0,0,0-0.1,0-0.2l0.4-2.4c0-0.1,0.1-0.1,0.1-0.1c0.1,0,0.1,0.1,0.1,0.2L55.9,76.9z M56.4,74.2
		C56.4,74.2,56.4,74.2,56.4,74.2c-0.1,0-0.1,0-0.2,0c0,0,0-0.1,0-0.1c0,0,0-0.1,0.1-0.1c0,0,0.1,0,0.1,0c0,0,0.1,0,0.1,0.1
		C56.5,74.1,56.5,74.1,56.4,74.2C56.5,74.2,56.5,74.2,56.4,74.2 M58.3,77.7C58.3,77.7,58.3,77.7,58.3,77.7c0,0.2-0.1,0.2-0.2,0.2
		c-0.1,0-0.2-0.1-0.3-0.2l-0.7-1.3c0,0,0-0.1,0-0.1c0,0,0,0,0-0.1c0,0,0,0,0.1,0c0,0,0.1,0,0.1,0.1l0.7,1.2c0,0.1,0.1,0.1,0.1,0.1
		C58.2,77.6,58.3,77.7,58.3,77.7 M58.1,74.7l-0.9,1c0,0-0.1,0.1-0.1,0c-0.1,0-0.1,0-0.1-0.1c0,0,0-0.1,0.1-0.1l0.9-0.9
		c0-0.1,0.1-0.1,0.1-0.1C58.2,74.5,58.2,74.6,58.1,74.7C58.2,74.7,58.2,74.7,58.1,74.7 M58.4,74.5C58.4,74.6,58.4,74.6,58.4,74.5
		c-0.1,0-0.1,0-0.2,0c0,0,0-0.1,0-0.1c0,0,0-0.1,0-0.1c0,0,0.1,0,0.1,0c0,0,0.1,0,0.1,0.1C58.5,74.4,58.5,74.4,58.4,74.5
		C58.5,74.5,58.5,74.5,58.4,74.5"/>
	<path class="st1" d="M60.7,62.4c-0.2-0.3-0.4-0.5-0.6-0.7c-1.1-1-2.9-1.1-4.2-0.2c-0.2,0.1-0.4,0.3-0.5,0.5
		c-0.8,0.9-0.9,2.3-0.1,3.4c0.1,0.2,0.2,0.3,0.4,0.4c0.7,0.6,1.8,0.7,2.7,0.1c-0.1,0.1-0.2,0.2-0.3,0.3c-1,0.7-2.2,0.6-3.1-0.2
		c-0.2-0.1-0.3-0.3-0.4-0.5c-0.7-1-0.8-2.3-0.5-3.6c0.4-2.1,1.8-4.3,2.9-5.6c0.3-0.4,0.6-0.7,0.8-0.9l-1.6-2
		c-6.1,1.8-8.7,8.7-8.7,8.7c0.1-2.9,1.8-6.9,3.6-8.3L49.6,52c-5,0.9-10.2,7.9-10,12.3l2.1,2.3c0.3-1.9,1.6-6.6,4-8.6
		c-0.6,0.8-1,5.3-0.7,7l3.7,0.4c0.6-1.6,1.8-4.2,3-5.6c-0.5,1.2-0.7,3.5-0.5,4.7l0,0c0.1,0.5,0.3,1.1,0.5,1.6
		c0.1,0.3,0.3,0.6,0.5,0.9c0.3,0.4,0.6,0.7,0.9,1c1.8,1.5,4.4,1.7,6.4,0.3c0.3-0.2,0.6-0.5,0.8-0.7C61.6,66.1,61.8,64,60.7,62.4"/>
	<path class="st2" d="M16.8,64.6L16.8,64.6C16.8,64.7,16.8,64.7,16.8,64.6C16.8,64.7,16.8,64.7,16.8,64.6
		C16.8,64.7,16.8,64.7,16.8,64.6C16.8,64.7,16.8,64.7,16.8,64.6c-0.1,0.1-0.2,0.1-0.2,0.1h0c-0.8,0.3-2.1,0.5-3.7,0.6
		c0.8,0.9,1.4,2,1.8,3.1c0.2,0.5,0.3,0.9,0.3,1.4c0.1,0.6,0.1,1.3,0.1,1.8c-0.3,3.1-2.7,5.7-5.9,6.2c-0.5,0.1-1,0.1-1.5,0
		c-2.5-0.3-4.6-2.2-5-4.8c-0.1-0.4-0.1-0.8,0-1.2c0.2-2,1.7-3.7,3.8-4c0.3,0,0.7-0.1,1,0c1.6,0.2,3,1.4,3.2,3.1c0,0.3,0,0.5,0,0.8
		c-0.1,1.3-1.1,2.4-2.5,2.6c-0.1,0-0.2,0-0.3,0c0.1,0,0.1,0,0.1,0c0.2,0,0.5,0,0.7,0c1.6-0.3,2.7-1.5,2.9-3.1c0-0.3,0-0.6,0-0.9
		c-0.4-2.7-3.2-4.5-6.1-5.6c-1.3-0.2-2.6-0.6-3.8-1c-0.5-0.2-1-0.4-1.5-0.6l0,0c-0.1,0-0.1-0.1-0.2-0.1c0,0-0.1,0-0.1-0.1
		c0,0,0-0.1,0-0.1l1.4-1.9l0,0c0,0,0,0,0,0c0,0,0,0,0,0c0,0,0,0,0,0c0,0,0,0,0,0c0,0,0,0,0,0c0,0,0,0,0,0c0,0,0,0,0,0
		c1.7,0.8,3.7,1.2,5.7,1.5c-1.2-0.5-2.3-1.4-3-2.6l0,0c-0.3-0.5-0.6-1-0.8-1.6c-0.1-0.3-0.2-0.7-0.3-1.1c-0.1-0.5-0.1-1,0-1.5
		c0.3-2.5,2.2-4.6,4.8-5c0.4-0.1,0.8-0.1,1.2,0c2,0.2,3.7,1.7,4,3.8c0.1,0.3,0.1,0.7,0,1c-0.2,1.6-1.4,3-3.1,3.2
		c-0.3,0-0.5,0.1-0.8,0c-1.3-0.1-2.4-1.1-2.6-2.5c0-0.2,0-0.4,0-0.6c0.1-1,0.9-1.9,2-2.1c-0.1,0-0.3,0-0.5,0
		c-1.2,0.2-2.2,1.2-2.3,2.4c0,0.2,0,0.5,0,0.7c0.2,1.3,1.1,2.3,2.3,3.1c1.9,1.3,4.6,2,6.4,2.2c0.7,0.1,1.3,0.1,1.6,0
		c0.1,0,0.1,0,0.2,0.1v0L16.8,64.6L16.8,64.6L16.8,64.6C16.8,64.6,16.8,64.6,16.8,64.6"/>
	<path class="st3" d="M17.1,49c-1.4-0.1-2.6,0.9-2.9,2.2c0.4-0.6,0.9-1,1.6-1.1c0.1,0,0.3,0,0.5,0c0.8,0,1.5,0.6,1.7,1.4
		c0,0.1,0,0.2,0,0.3c-0.2-0.7-0.8-1.2-1.4-1.2c-0.1,0-0.3,0-0.4,0c-0.9,0.2-1.5,0.9-1.5,1.8c0,0.2,0,0.3,0,0.5
		c0.2,0.6,0.6,1.2,1.1,1.5c0.3,0.1,0.7,0.2,1.1,0.3c1.1,0.1,2.1-0.5,2.6-1.5c0,0,0,0,0,0c0,0,0-0.1,0.1-0.1c0,0,0,0,0,0
		c0.2-0.3,0.3-0.7,0.3-1.1C19.8,50.4,18.6,49.1,17.1,49"/>
	<path class="st4" d="M23.5,54.5c0.8-1.7,1.8-2.8,2.9-3.5c0,0-2.8-0.1-5.3,4c-2.5,4.3-2.9,10.1-1.9,15.5c1.2-0.5,2.4-0.9,3.7-1.2
		C21.2,65,21.5,58.5,23.5,54.5"/>
	<path class="st5" d="M35,52.3C35,52.4,35,52.3,35,52.3c-0.1,0-0.1,0.1-0.1,0.2c0.1,0.4,0.2,1,0.3,1.8c0.1,2.1-0.2,5.2-1.3,7.5
		c-0.7,1.5-1.7,2.6-3.1,3.1c-0.3,0.1-0.5,0.1-0.8,0.1c-1.3,0.1-2.6-0.8-3.1-2.1c0-0.2-0.1-0.3-0.1-0.5c0.4,1.2,1.5,1.9,2.7,1.8
		c0.2,0,0.5-0.1,0.7-0.1c1.5-0.5,2.4-1.9,2.3-3.3c0-0.3-0.1-0.6-0.2-0.9c-0.6-1.8-2.3-2.9-4.1-2.8c-0.4,0-0.7,0.1-1.1,0.2
		c-2.3,0.7-3.6,2.9-3.5,5.2c0,0.4,0.1,0.9,0.3,1.3c0.9,2.8,3.6,4.5,6.4,4.4c0.6,0,1.1-0.1,1.7-0.3c0.4-0.1,0.8-0.3,1.2-0.5
		c0.6-0.3,1.1-0.7,1.6-1.1l0,0c1.1-1,1.9-2.3,2.3-3.8c0.1,2.2,6.6,10.4,12.8,6c0,0-10.3,2.5-12.2-17L35,52.3z"/>
	<path class="st6" d="M50.2,30.6c0.9,0,1.8,0.4,2.6,1.1c1,1,2.4,1.5,3.7,1.5c1.3,0,2.7-0.5,3.7-1.5L59,30.5
		c-0.7,0.7-1.6,1.1-2.6,1.1c-0.9,0-1.8-0.4-2.6-1.1c-1-1-2.4-1.5-3.7-1.5c-1.3,0-2.7,0.5-3.7,1.5c-0.6,0.6-1.4,1-2.3,1
		c-0.4-1.3-1.1-2.6-2.1-3.6c-1.1-1.2-2.5-2-4.1-2.5c5.6,0.4,10.9,1.4,15.7,2.9c-5.4-3.6-13-5.9-21.5-5.9c-8.5,0-16.1,2.3-21.5,5.9
		c4-1.2,8.4-2.1,12.9-2.6c-1.7,1.6-2.9,3.7-3.5,5.9c-0.8-0.1-1.6-0.4-2.2-1c-1-1-2.4-1.5-3.7-1.5c-1.3,0-2.7,0.5-3.7,1.5
		c-0.7,0.7-1.6,1.1-2.6,1.1c-0.9,0-1.8-0.4-2.5-1.1l-1.1,1.1c1,1,2.4,1.5,3.7,1.5c1.3,0,2.7-0.5,3.7-1.5c0.7-0.7,1.6-1.1,2.6-1.1
		c0.9,0,1.8,0.4,2.6,1.1c0.8,0.8,1.9,1.3,3,1.5c-0.1,0.4-0.1,0.9-0.1,1.3c-0.6-0.1-1.3-0.5-1.8-1c-1-1-2.4-1.5-3.7-1.5
		c-1.3,0-2.7,0.5-3.7,1.5l1.1,1.1c0.7-0.7,1.6-1.1,2.6-1.1c0.9,0,1.8,0.3,2.6,1.1c0.8,0.8,1.9,1.3,3,1.5c0,0.4,0.1,0.8,0.2,1.2
		c0,0,0,0.1,0,0.1c-0.8-0.1-1.5-0.4-2.1-1l-1.1,1.1c1,1,2.4,1.5,3.7,1.5C24.4,49.5,40,49.7,44,39.1v0.1h0c1.3,0,2.7-0.5,3.7-1.5
		l-1.1-1.1c-0.6,0.6-1.3,0.9-2.1,1c0.1-0.5,0.2-0.9,0.2-1.4c1.1-0.2,2.1-0.6,3-1.5c0.7-0.7,1.6-1.1,2.6-1.1c0.9,0,1.8,0.3,2.6,1.1
		l1.1-1.1c-1-1-2.4-1.5-3.7-1.5c-1.3,0-2.7,0.5-3.7,1.5c-0.5,0.5-1.1,0.8-1.8,1c0-0.4-0.1-0.9-0.1-1.3c1.1-0.1,2.2-0.6,3-1.5
		C48.4,30.9,49.3,30.6,50.2,30.6 M43.4,31.7c-1.1,0.2-2.2,0.5-3.4,0.7c-0.1-0.3-0.1-0.6-0.2-0.9c0.8-0.2,1.6-0.4,2.4-0.5
		C43.3,30.8,43.1,30.9,43.4,31.7 M42.5,29.9c-1,0.4-1.9,0.8-2.9,1.2c-0.1-0.3-0.2-0.6-0.4-0.8C40.5,29.8,41.8,28.6,42.5,29.9
		 M41.3,28.4c-0.8,0.5-1.5,1-2.3,1.6c-0.2-0.3-0.3-0.5-0.5-0.8C39.6,28.4,40.3,27.3,41.3,28.4 M39.8,27.1c-0.5,0.6-1.1,1.1-1.6,1.7
		c-0.2-0.2-0.4-0.4-0.7-0.6C38.4,27.3,38.7,26.4,39.8,27.1 M38.1,26.3c-0.3,0.5-0.7,1.1-1,1.6c-0.3-0.2-0.5-0.3-0.8-0.5
		C36.9,26.4,36.9,25.8,38.1,26.3 M36.1,25.8c-0.4,1.2,0,1.3-1.3,1C34.9,25.8,35.3,25.7,36.1,25.8 M33.8,25.8c0,0,0.6,0.8-0.8,0.8
		C32.9,25.9,33.2,25.9,33.8,25.8 M21.7,31.7c-0.2,0-0.4-0.1-0.6-0.1C21.5,30.2,21.7,30.6,21.7,31.7 M21.3,33.2
		c0.4-0.2,0.6-0.1,0.5,0.3c0,0.2,0.1,0.4,0.1,0.6c-0.4,0-0.8,0-1.2,0C20.5,33.3,20.6,33,21.3,33.2 M21.5,35.6
		c1.1-0.2,0.8-0.1,1.1,0.7c-0.6,0.1-1.2,0.3-1.8,0.4C20.7,35.8,20.5,35.8,21.5,35.6 M22.6,37.8c0.9-0.4,0.7-0.2,1.2,0.5
		c-0.8,0.3-1.5,0.7-2.3,1C21.1,38,21.6,38.2,22.6,37.8 M22.9,41.6c-0.9-1.2,0-1.2,1-1.8c1-0.7,0.7-0.5,1.5,0.1
		C24.6,40.4,23.8,41,22.9,41.6 M24.1,42.9c0.6-0.6,1.2-1.2,1.7-1.8c0.8-0.8,0.6-0.6,1.4-0.1c-0.4,0.4-0.8,0.9-1.2,1.3
		C25.2,43.1,25.1,44,24.1,42.9 M26.4,44.7c0.5-0.8,1-1.6,1.5-2.4c0.7-1.1,0.4-0.8,1.4-0.5c-0.4,0.7-0.8,1.4-1.3,2
		C27.5,44.7,27.6,45.4,26.4,44.7 M30.7,44.4c-0.4,1.1-0.1,1.8-1.4,1.4c0.3-0.8,0.5-1.6,0.8-2.4c0.4-1.2,0.2-1.5,1.5-1.5
		C31.2,42.8,31,43.6,30.7,44.4 M33.7,44.4c-0.1,1.2,0.3,1.8-1,1.8c0-0.5,0-4.3,0.4-4.4c0.3-0.1,0.5-0.1,0.8-0.2
		C33.8,42.6,33.7,43.5,33.7,44.4 M30.9,41c-0.2,0.4-3.8-1.1-3.8-1.2c-5.1-3.1-5.3-9.4-2.9-14.3c2.6-0.3,5.3-0.4,8-0.4
		c0.2,0,0.4,0,0.6,0c-1.7,0.4-3.3,1.4-4.4,3c-2.5,3.6-1.4,9.2,3.1,10.4c2.1,0.6,4.5-0.2,5.7-2.1c1.3-2.1,0.7-5-1.7-5.9
		c-3.2-1.2-6.1,3.5-2.2,4.7c1.4,0.1,1.7,1.2-0.3,1.6c-1.7,0.4-3.5-0.5-4.4-2c-2.4-4,2-8.1,6-7c2.6,0.7,4,2.8,4.4,5.3
		c0.3,3.1-1.6,6.2-4.5,7.4C33.5,41,32.1,41.1,30.9,41 M32.2,26.7c-0.3,0.1-0.5,0.1-0.8,0.2c0-0.1,0-0.1-0.1-0.2
		c0.3-0.2,0.6-0.3,0.8-0.4C32.3,26.4,32.4,26.7,32.2,26.7 M36.2,45.6c-0.3-0.8-0.5-1.7-0.8-2.5c-0.4-1.3-0.8-1.5,0.3-2.1
		c0.3,0.8,0.5,1.7,0.8,2.5C36.9,44.7,37.6,45.1,36.2,45.6 M39.1,44.1c-0.5-0.7-0.9-1.5-1.4-2.2c-0.7-1.1-1.1-1.2-0.2-2.1
		c0.5,0.7,0.9,1.5,1.4,2.2C39.5,43,40.1,43.3,39.1,44.1 M41.5,41.7c-0.1,0.2-0.3,0.3-0.4,0.5c-0.6-0.6-1.2-1.2-1.8-1.8
		c-0.9-0.9-1.4-0.9-0.6-1.9C39.1,38.9,41.8,41.2,41.5,41.7 M42.5,40.1c-1.2-0.8-2.3-1.5-3.5-2.3c0.1-0.2,0.4-0.6,0.5-0.8
		c0.7,0.4,1.4,0.9,2.1,1.3C42.5,39,43.1,38.9,42.5,40.1 M43.3,38c-0.7-0.3-1.5-0.6-2.2-0.9C40,36.7,39.6,37,40,35.7
		c0.7,0.3,1.5,0.6,2.2,0.9C43.2,37,43.7,36.7,43.3,38 M43.8,35.9c-1.2-0.2-2.5-0.4-3.7-0.7c0-0.3,0.1-0.6,0.1-0.9
		c0.6,0.1,1.2,0.2,1.8,0.3C43.2,34.8,43.9,34.5,43.8,35.9 M40.2,33.8c0-0.3,0-0.6-0.1-0.9c0.9,0,1.8,0,2.7,0c1.1,0,0.9-0.1,1,0.9
		C42.6,33.8,41.4,33.8,40.2,33.8 M10.8,22.9c0.1,0.1,0.1,0.3,0.2,0.4c0.1,0.1,0.2,0.1,0.2,0.2c-0.2,0.1-0.6,0.1-0.6,0.3
		c0,0.1,0.1,0.3,0.2,0.4c0.1,0.1,0.3,0.2,0.4,0.3c0.2,0.2,0.4,0.5,0.5,0.8c-0.1,0-0.3,0-0.3,0.1c0,0.2,0,0.5,0.1,0.8
		c0.2-0.1,0.4-0.2,0.5-0.3c0.1-0.1,0.1-0.2,0.1-0.4c0-0.1,0.1-0.3,0.1-0.4c0-0.3-0.3-0.3-0.4-0.6c0.5,0.1,1.3-0.1,1.7,0.1
		c0,0.1,0,0.2,0,0.3c0.2,0.1,0.5,0.2,0.8,0.2c0-0.2,0-0.4-0.1-0.6c0-0.1-0.1-0.1-0.1-0.1C14.1,24.2,14,24,14,24
		c-0.1-0.1-0.5,0-0.7,0c-0.3,0-0.5,0.1-0.7,0c0.1-0.1,0.3-0.2,0.4-0.3c0.1-0.1,0.1-0.2,0.2-0.2c0.1-0.1,0.2-0.1,0.3-0.1
		c0.2-0.1,0.1-0.6,0.3-0.7c0.1,0,0.3,0,0.5,0c0.4,0,0.9,0.1,1.4,0.1l0.3-0.1c0.2-0.1,0.4-0.1,0.6-0.2c0.2,0,0.3,0.3,0.5,0.3
		c0.1,0,0.1,0,0.2,0c0.2,0,0.4,0.1,0.7,0c-0.1,0.2-0.3,0.3-0.3,0.5c0.1,0.1,0.2,0,0.2,0.1c-0.2,0-0.3,0.1-0.3,0.3
		c-0.4-0.3-0.6,0.3-0.7,0.6c0.2,0,0.5,0,0.6,0c0,0,0.1-0.1,0.2-0.1c0.1,0,0.2-0.1,0.3-0.1c0.2-0.1,0.2-0.2,0.3-0.4
		c0.1-0.1,0.2-0.3,0.3-0.4c0.1-0.1,0.2-0.1,0.2-0.1c0.1-0.1,0.2-0.4,0.3-0.6c0.1-0.2,0.3-0.4,0.3-0.6c0-0.2-0.2-0.2-0.2-0.3
		c-0.3-0.1-0.7,0.2-1.2,0.1c0.1-0.2-0.1-0.5-0.1-0.7c-0.1-0.1-0.2-0.2-0.2-0.4c-0.1-0.5,0-1.2-0.3-1.6c0.2,0.1,0.4,0.1,0.5,0.3
		c0,0.1,0.1,0.2,0.1,0.2c0.2,0,0.3,0,0.4-0.1c-0.1-0.1-0.1-0.3-0.1-0.4c0.1,0.1,0.2,0.1,0.2,0.2c0.1,0,0.1-0.1,0.2-0.1
		c0-0.1,0-0.1,0.1-0.2c-0.1-0.1,0-0.1,0-0.2c-0.2-0.3-0.6-0.4-0.6-1c0-0.1-0.2-0.1-0.2-0.2c-0.1-0.1,0-0.2-0.1-0.3
		c-0.1-0.1-0.2-0.2-0.4-0.1c-0.1-0.1-0.1-0.3-0.3-0.3c0,0.1,0.1,0.1,0,0.2c-0.2-0.3-0.7-0.2-0.7,0.2c-0.3,0-0.5,0.2-0.6,0.4
		c-0.1,0-0.1,0-0.1,0c-0.1,0.1-0.3,0.2-0.3,0.4c0,0.1,0.1,0.2,0.1,0.3c0,0.1-0.1,0.2-0.1,0.3c0,0.1,0,0.1,0,0.2c0,0,0,0.1,0,0.1
		c0,0.1,0.1,0.2,0.1,0.4c0,0.2,0,0.2,0.1,0.3c-0.1,0.1,0.1,0.4-0.2,0.3L15.2,20c-0.1,0.2-0.2,0.3-0.4,0.5c-0.4,0.3-0.9,0.1-1.3,0
		c-0.3-0.1-0.7-0.4-1-0.2c0,0.1,0,0.3,0,0.4c-0.2,0.1-0.3,0.2-0.6,0.3c-0.2,0-0.3,0-0.5,0c-0.2,0-0.4,0-0.6,0.1
		c-0.5,0.1-0.6,0.7-0.5,1.1C10.4,22.4,10.6,22.6,10.8,22.9 M18.6,22c0.1,0.1,0,0.2,0,0.3c-0.1,0-0.2-0.1-0.2-0.1
		C18.5,22.2,18.5,22.1,18.6,22 M11.8,24c0,0.1-0.1,0.1-0.1,0.3c-0.1,0-0.1-0.1-0.1-0.2C11.6,24.1,11.7,24,11.8,24 M11.4,21.6
		c0,0.1,0,0.2,0,0.3c0,0.1,0.1,0.2,0.1,0.3c-0.2,0-0.3-0.2-0.3-0.5C11.3,21.7,11.4,21.7,11.4,21.6 M43.6,19.7c0.1,0,0.2,0.1,0.3,0.1
		l0.6-2.9c-2.7-0.7-5.4-1.3-8.1-1.5c-5.5-0.5-11,0-16.3,1.4c-0.1,0-0.2,0.1-0.3,0.1l0.7,2.8c0.1,0,0.2-0.1,0.3-0.1
		c0.3,0,0.6,0.3,0.6,0.6c0,0.3-0.3,0.6-0.6,0.6l0,0l0,0.2c0.4,0,0.7,0.4,0.7,0.8c0,0.3-0.2,0.5-0.4,0.6l0,0.1c0,0,0,0,0,0l0,0h0
		c0.2-0.1,0.4-0.1,0.6-0.1c-0.2-0.1-0.3-0.3-0.3-0.6c0-0.4,0.3-0.8,0.8-0.8c0.4,0,0.8,0.3,0.8,0.8c0,0.1,0,0.2-0.1,0.3
		c0.1,0,0.2,0,0.3-0.1c0-0.1-0.1-0.2-0.1-0.3c0-0.4,0.3-0.8,0.8-0.8c0.4,0,0.8,0.3,0.8,0.8c0,0,0,0,0,0c0,0,0.1,0,0.1,0c0,0,0,0,0,0
		c0-0.4,0.3-0.8,0.8-0.8c0.4,0,0.6,0.2,0.7,0.6c0.1,0,0.1,0,0.2,0c0.1-0.3,0.4-0.5,0.7-0.5c0.3,0,0.5,0.2,0.7,0.4c0.1,0,0.2,0,0.3,0
		c0.1-0.2,0.4-0.4,0.7-0.4c0.2,0,0.4,0.1,0.6,0.3c0.2,0,0.3,0,0.5,0c0.1-0.2,0.3-0.3,0.6-0.3c0.2,0,0.4,0.1,0.5,0.2
		c0.2,0,0.4,0,0.6,0c0.1-0.1,0.3-0.2,0.5-0.2c0.2,0,0.4,0.1,0.5,0.2c0.2,0,0.4,0,0.6,0c0.1-0.1,0.3-0.2,0.5-0.2
		c0.2,0,0.4,0.1,0.6,0.3c0.2,0,0.3,0,0.5,0c0.1-0.2,0.3-0.3,0.6-0.3c0.3,0,0.5,0.2,0.7,0.4c0.1,0,0.2,0,0.3,0
		c0.1-0.2,0.4-0.4,0.7-0.4c0.3,0,0.6,0.2,0.7,0.5c0.1,0,0.1,0,0.2,0c0.1-0.3,0.4-0.6,0.7-0.6c0.4,0,0.8,0.3,0.8,0.8c0,0,0,0,0,0
		c0,0,0.1,0,0.1,0c0,0,0,0,0,0c0-0.4,0.3-0.8,0.8-0.8c0.4,0,0.8,0.3,0.8,0.8c0,0.1,0,0.2-0.1,0.3c0.1,0,0.2,0,0.2,0.1
		c-0.1-0.1-0.1-0.2-0.1-0.3c0-0.4,0.3-0.8,0.8-0.8c0.4,0,0.8,0.3,0.8,0.8c0,0.2-0.1,0.4-0.3,0.6c0.1,0,0.3,0,0.4,0.1l0,0l0.4,0.1
		c0,0,0.1,0,0.1,0l0,0c-0.3-0.1-0.5-0.4-0.5-0.7c0-0.4,0.3-0.8,0.8-0.8c0,0,0,0,0.1,0l0.1-0.2c0,0-0.1,0-0.1,0
		c-0.3,0-0.6-0.3-0.6-0.6C43,20,43.3,19.7,43.6,19.7 M20.7,16.9c0.1,0,0.3,0.1,0.3,0.3c0,0.1-0.1,0.3-0.3,0.3
		c-0.1,0-0.3-0.1-0.3-0.3C20.5,17,20.6,16.9,20.7,16.9 M20.7,19.1c-0.2,0-0.4-0.2-0.4-0.4c0-0.2,0.2-0.4,0.4-0.4
		c0.2,0,0.4,0.2,0.4,0.4C21.2,19,21,19.1,20.7,19.1 M22.4,16.9c0.1,0,0.3,0.1,0.3,0.3c0,0.1-0.1,0.3-0.3,0.3c-0.1,0-0.3-0.1-0.3-0.3
		C22.1,17,22.2,16.9,22.4,16.9 M22.4,18.3c0.2,0,0.4,0.2,0.4,0.4c0,0.2-0.2,0.4-0.4,0.4c-0.2,0-0.4-0.2-0.4-0.4
		C22,18.5,22.1,18.3,22.4,18.3 M22.4,20.9c-0.3,0-0.6-0.3-0.6-0.6c0-0.3,0.3-0.6,0.6-0.6c0.3,0,0.6,0.3,0.6,0.6
		C23,20.6,22.7,20.9,22.4,20.9 M24,16.9c0.1,0,0.3,0.1,0.3,0.3c0,0.1-0.1,0.3-0.3,0.3c-0.1,0-0.3-0.1-0.3-0.3
		C23.8,17,23.9,16.9,24,16.9 M24,18.3c0.2,0,0.4,0.2,0.4,0.4c0,0.2-0.2,0.4-0.4,0.4c-0.2,0-0.4-0.2-0.4-0.4
		C23.6,18.5,23.8,18.3,24,18.3 M24,20.9c-0.3,0-0.6-0.3-0.6-0.6c0-0.3,0.3-0.6,0.6-0.6c0.3,0,0.6,0.3,0.6,0.6
		C24.6,20.6,24.3,20.9,24,20.9 M25.6,16.9c0.1,0,0.3,0.1,0.3,0.3c0,0.1-0.1,0.3-0.3,0.3s-0.3-0.1-0.3-0.3
		C25.4,17,25.5,16.9,25.6,16.9 M25.6,18.3c0.2,0,0.4,0.2,0.4,0.4c0,0.2-0.2,0.4-0.4,0.4c-0.2,0-0.4-0.2-0.4-0.4
		C25.2,18.5,25.4,18.3,25.6,18.3 M25.6,20.9c-0.3,0-0.6-0.3-0.6-0.6c0-0.3,0.3-0.6,0.6-0.6c0.3,0,0.6,0.3,0.6,0.6
		C26.2,20.6,26,20.9,25.6,20.9 M27.3,16.9c0.1,0,0.3,0.1,0.3,0.3c0,0.1-0.1,0.3-0.3,0.3c-0.1,0-0.3-0.1-0.3-0.3
		C27,17,27.1,16.9,27.3,16.9 M27.3,18.3c0.2,0,0.4,0.2,0.4,0.4c0,0.2-0.2,0.4-0.4,0.4c-0.2,0-0.4-0.2-0.4-0.4
		C26.9,18.5,27,18.3,27.3,18.3 M27.3,20.9c-0.3,0-0.6-0.3-0.6-0.6c0-0.3,0.3-0.6,0.6-0.6c0.3,0,0.6,0.3,0.6,0.6
		C27.9,20.6,27.6,20.9,27.3,20.9 M35.4,16.9c0.1,0,0.3,0.1,0.3,0.3c0,0.1-0.1,0.3-0.3,0.3c-0.1,0-0.3-0.1-0.3-0.3
		C35.2,17,35.3,16.9,35.4,16.9 M35.4,18.3c0.2,0,0.4,0.2,0.4,0.4c0,0.2-0.2,0.4-0.4,0.4c-0.2,0-0.4-0.2-0.4-0.4
		C35,18.5,35.2,18.3,35.4,18.3 M33.8,16.9c0.1,0,0.3,0.1,0.3,0.3c0,0.1-0.1,0.3-0.3,0.3c-0.1,0-0.3-0.1-0.3-0.3
		C33.6,17,33.7,16.9,33.8,16.9 M33.8,18.3c0.2,0,0.4,0.2,0.4,0.4c0,0.2-0.2,0.4-0.4,0.4c-0.2,0-0.4-0.2-0.4-0.4
		C33.4,18.5,33.6,18.3,33.8,18.3 M32.2,16.9c0.1,0,0.3,0.1,0.3,0.3c0,0.1-0.1,0.3-0.3,0.3c-0.1,0-0.3-0.1-0.3-0.3
		C31.9,17,32,16.9,32.2,16.9 M32.2,18.3c0.2,0,0.4,0.2,0.4,0.4c0,0.2-0.2,0.4-0.4,0.4c-0.2,0-0.4-0.2-0.4-0.4
		C31.7,18.5,31.9,18.3,32.2,18.3 M30.5,16.9c0.1,0,0.3,0.1,0.3,0.3c0,0.1-0.1,0.3-0.3,0.3c-0.1,0-0.3-0.1-0.3-0.3
		C30.3,17,30.4,16.9,30.5,16.9 M30.5,18.3c0.2,0,0.4,0.2,0.4,0.4c0,0.2-0.2,0.4-0.4,0.4c-0.2,0-0.4-0.2-0.4-0.4
		C30.1,18.5,30.3,18.3,30.5,18.3 M28.9,16.9c0.1,0,0.3,0.1,0.3,0.3c0,0.1-0.1,0.3-0.3,0.3c-0.1,0-0.3-0.1-0.3-0.3
		C28.7,17,28.8,16.9,28.9,16.9 M28.9,18.3c0.2,0,0.4,0.2,0.4,0.4c0,0.2-0.2,0.4-0.4,0.4c-0.2,0-0.4-0.2-0.4-0.4
		C28.5,18.5,28.7,18.3,28.9,18.3 M28.9,20.9c-0.3,0-0.6-0.3-0.6-0.6c0-0.3,0.3-0.6,0.6-0.6c0.3,0,0.6,0.3,0.6,0.6
		C29.5,20.6,29.2,20.9,28.9,20.9 M30.5,20.9c-0.3,0-0.6-0.3-0.6-0.6c0-0.3,0.3-0.6,0.6-0.6c0.3,0,0.6,0.3,0.6,0.6
		C31.1,20.6,30.9,20.9,30.5,20.9 M32.2,20.9c-0.3,0-0.6-0.3-0.6-0.6c0-0.3,0.3-0.6,0.6-0.6c0.3,0,0.6,0.3,0.6,0.6
		C32.8,20.6,32.5,20.9,32.2,20.9 M33.8,20.9c-0.3,0-0.6-0.3-0.6-0.6c0-0.3,0.3-0.6,0.6-0.6c0.3,0,0.6,0.3,0.6,0.6
		C34.4,20.6,34.1,20.9,33.8,20.9 M35.4,20.9c-0.3,0-0.6-0.3-0.6-0.6c0-0.3,0.3-0.6,0.6-0.6c0.3,0,0.6,0.3,0.6,0.6
		C36,20.6,35.8,20.9,35.4,20.9 M37.1,16.9c0.1,0,0.3,0.1,0.3,0.3c0,0.1-0.1,0.3-0.3,0.3c-0.1,0-0.3-0.1-0.3-0.3
		C36.8,17,36.9,16.9,37.1,16.9 M37.1,18.3c0.2,0,0.4,0.2,0.4,0.4c0,0.2-0.2,0.4-0.4,0.4c-0.2,0-0.4-0.2-0.4-0.4
		C36.6,18.5,36.8,18.3,37.1,18.3 M37.1,20.9c-0.3,0-0.6-0.3-0.6-0.6c0-0.3,0.3-0.6,0.6-0.6c0.3,0,0.6,0.3,0.6,0.6
		C37.7,20.6,37.4,20.9,37.1,20.9 M38.7,16.9c0.1,0,0.3,0.1,0.3,0.3c0,0.1-0.1,0.3-0.3,0.3c-0.1,0-0.3-0.1-0.3-0.3
		C38.5,17,38.6,16.9,38.7,16.9 M38.7,18.3c0.2,0,0.4,0.2,0.4,0.4c0,0.2-0.2,0.4-0.4,0.4c-0.2,0-0.4-0.2-0.4-0.4
		C38.3,18.5,38.5,18.3,38.7,18.3 M38.7,20.9c-0.3,0-0.6-0.3-0.6-0.6c0-0.3,0.3-0.6,0.6-0.6c0.3,0,0.6,0.3,0.6,0.6
		C39.3,20.6,39,20.9,38.7,20.9 M40.3,16.9c0.1,0,0.3,0.1,0.3,0.3c0,0.1-0.1,0.3-0.3,0.3c-0.1,0-0.3-0.1-0.3-0.3
		C40.1,17,40.2,16.9,40.3,16.9 M40.3,18.3c0.2,0,0.4,0.2,0.4,0.4c0,0.2-0.2,0.4-0.4,0.4c-0.2,0-0.4-0.2-0.4-0.4
		C39.9,18.5,40.1,18.3,40.3,18.3 M40.3,20.9c-0.3,0-0.6-0.3-0.6-0.6c0-0.3,0.3-0.6,0.6-0.6c0.3,0,0.6,0.3,0.6,0.6
		C40.9,20.6,40.7,20.9,40.3,20.9 M42,16.9c0.1,0,0.3,0.1,0.3,0.3c0,0.1-0.1,0.3-0.3,0.3c-0.1,0-0.3-0.1-0.3-0.3
		C41.7,17,41.8,16.9,42,16.9 M42,18.3c0.2,0,0.4,0.2,0.4,0.4c0,0.2-0.2,0.4-0.4,0.4c-0.2,0-0.4-0.2-0.4-0.4
		C41.5,18.5,41.7,18.3,42,18.3 M42,20.9c-0.3,0-0.6-0.3-0.6-0.6c0-0.3,0.3-0.6,0.6-0.6c0.3,0,0.6,0.3,0.6,0.6
		C42.6,20.6,42.3,20.9,42,20.9 M43.6,16.9c0.1,0,0.3,0.1,0.3,0.3c0,0.1-0.1,0.3-0.3,0.3c-0.1,0-0.3-0.1-0.3-0.3
		C43.3,17,43.5,16.9,43.6,16.9 M43.6,18.3c0.2,0,0.4,0.2,0.4,0.4c0,0.2-0.2,0.4-0.4,0.4c-0.2,0-0.4-0.2-0.4-0.4
		C43.2,18.5,43.4,18.3,43.6,18.3 M45.7,18.9c0,0.1,0.1,0.1,0,0.2c0.1,0,0.1,0.1,0.1,0.2c0.1,0,0.1,0.1,0.2,0.1
		c0.1-0.1,0.2-0.2,0.2-0.2c0,0.1,0,0.3-0.1,0.4c0.1,0.1,0.2,0.1,0.4,0.1c0.1-0.1,0.1-0.1,0.1-0.2c0.1-0.2,0.3-0.2,0.5-0.3
		c-0.2,0.4-0.1,1.1-0.3,1.6c0,0.2-0.2,0.3-0.2,0.4c0,0.2-0.2,0.5-0.1,0.7c-0.4,0-0.8-0.3-1.2-0.1c-0.1,0.1-0.2,0.2-0.2,0.3
		c0,0.2,0.2,0.4,0.3,0.6c0.1,0.2,0.1,0.5,0.3,0.6c0.1,0.1,0.2,0.1,0.2,0.1c0.1,0.1,0.2,0.3,0.3,0.4c0.1,0.2,0.1,0.3,0.3,0.4
		c0.1,0,0.2,0.1,0.3,0.1c0.1,0,0.2,0.1,0.2,0.1c0.2,0.1,0.5,0,0.6,0c-0.1-0.2-0.3-0.9-0.7-0.6c0-0.2-0.2-0.2-0.3-0.3
		c0.1-0.1,0.2,0,0.2-0.1c-0.1-0.2-0.3-0.3-0.3-0.5c0.2,0.1,0.5,0,0.7,0c0.1,0,0.1,0,0.2,0c0.2,0,0.3-0.3,0.5-0.3
		c0.2,0.1,0.4,0.2,0.6,0.2l0.3,0.1c0.5,0.1,0.9,0,1.4-0.1c0.1,0,0.3,0,0.5,0c0.2,0.1,0.1,0.5,0.3,0.7c0.1,0.1,0.2,0.1,0.3,0.1
		c0.1,0,0.1,0.1,0.2,0.2c0.1,0.1,0.3,0.1,0.4,0.3c-0.2,0.1-0.4,0-0.7,0c-0.2,0-0.6-0.1-0.7,0c-0.1,0-0.1,0.2-0.2,0.4
		c0,0-0.1,0.1-0.1,0.1c-0.1,0.2-0.1,0.4-0.1,0.6c0.3,0,0.6-0.1,0.8-0.2c0-0.1,0-0.2,0-0.3c0.5-0.2,1.2,0,1.7-0.1
		c-0.1,0.2-0.4,0.3-0.4,0.6c0,0.1,0.1,0.3,0.1,0.4c0,0.1,0.1,0.3,0.1,0.4c0.1,0.2,0.4,0.3,0.5,0.3c0.1-0.2,0.1-0.5,0.1-0.8
		c-0.1-0.1-0.3-0.1-0.3-0.1c0.2-0.3,0.3-0.6,0.5-0.8c0.1-0.1,0.3-0.2,0.4-0.3c0.1-0.1,0.2-0.3,0.2-0.4c0-0.2-0.4-0.2-0.6-0.3
		c0-0.1,0.2-0.1,0.2-0.2c0.1-0.1,0.1-0.3,0.2-0.4c0.2-0.3,0.5-0.5,0.5-0.9c0.1-0.5-0.1-1-0.5-1.1c-0.2-0.1-0.4-0.1-0.6-0.1
		c-0.2,0-0.3,0.1-0.5,0c-0.2,0-0.3-0.2-0.6-0.3c0-0.1,0-0.2,0-0.4c-0.3-0.1-0.7,0.1-1,0.2c-0.4,0.1-0.9,0.3-1.3,0
		c-0.2-0.1-0.2-0.3-0.4-0.5L49,20.2c-0.2,0-0.1-0.3-0.2-0.3c0.1-0.1,0.1-0.2,0.1-0.3c0-0.1,0.1-0.2,0.1-0.4c0-0.1,0-0.1,0-0.1
		c0-0.1,0-0.1,0-0.2c0-0.1-0.1-0.2-0.1-0.3c0-0.1,0.1-0.2,0.1-0.3c0-0.2-0.2-0.2-0.3-0.4c0,0-0.1,0-0.1,0c-0.1-0.2-0.3-0.4-0.6-0.4
		c0-0.3-0.5-0.4-0.7-0.2c0-0.1,0.1-0.1,0-0.2c-0.2,0-0.2,0.2-0.3,0.3c-0.2-0.1-0.4,0-0.4,0.1c0,0.1,0,0.2-0.1,0.3
		c0,0.1-0.2,0.1-0.2,0.2C46.4,18.4,46,18.5,45.7,18.9 M45.9,22.3c0-0.1-0.1-0.2,0-0.3c0.1,0,0.2,0.1,0.3,0.2
		C46.1,22.2,46,22.3,45.9,22.3 M53.1,21.9c0-0.1,0-0.3,0-0.3c0.1,0,0.1,0.1,0.2,0.1c0,0.3-0.1,0.4-0.3,0.5
		C53,22.2,53.1,22,53.1,21.9 M53,24.1c0,0.1,0,0.2-0.1,0.2c0-0.1-0.1-0.2-0.1-0.3C52.8,24,52.9,24.1,53,24.1 M18.9,16
		c0.7-0.2,1.3-0.4,2-0.6c5-1.4,10.2-1.8,15.3-1.3c3.1,0.3,6.3,0.9,9.3,1.9l0.6-2c-0.2-0.1-0.3-0.1-0.4-0.2c0,0,0,0-0.1,0
		c-3.7-1.6-11.6-4.2-13.1-9.9l0,0.1c1.2,5,6.5,7.3,9.2,8.8c-1.2-0.3-2.3-0.5-3.5-0.6c0,0-0.1,0-0.1,0c-1.4-1.3-4.8-3.8-5.7-8.1h0.1
		V3.9h0.1c0,0,0,0,0,0c0,0,0,0-0.1,0V3.1c0.1,0,0.1,0,0.2,0C33.2,3,33.7,3,34.2,3c0,0,0,0,0,0.1c0,0.1-0.1,0.3-0.1,0.4
		c0.6-0.2,1.2-0.1,1.8-0.1c0,0.1-0.1,0.2-0.1,0.3c0.7-0.1,1.7-0.1,2.2-0.7c0,0,0,0,0.1-0.1c-0.5-0.1-1-0.2-1.5-0.4
		c-0.2-0.1,0-0.8-0.1-1c-0.4-0.2-1-0.1-1.5-0.2c0.1-0.8-1.6-0.5-2.1-0.5c-0.1,0-0.2,0-0.2,0v0c0.1-0.1,0.2-0.2,0.2-0.4
		c0-0.3-0.2-0.5-0.5-0.5c-0.3,0-0.5,0.2-0.5,0.5c0,0.2,0.1,0.3,0.2,0.4v0.3c0,0.1,0,0.2,0,0.4V3h0v0.8H32c-1.5,5.6-9.1,8.2-12.9,9.8
		c-0.1,0-0.2,0.1-0.3,0.1c-0.2,0.1-0.3,0.1-0.5,0.2c0.1,0.4,0.3,0.9,0.5,1.4C18.9,15.6,18.9,15.8,18.9,16 M32.3,4
		c0,0.7,0.1,1.4,0.2,2c0.4,3.1,1.3,4.7,1.7,5.8c-1.3-0.1-2.6,0-3.9,0c0.4-1.1,1.3-2.7,1.7-6c0.1-0.5,0.1-1.1,0.2-1.8H32.3z M32,3.9
		C32,3.9,32,3.9,32,3.9l0,0.1h0.1c-0.9,4.4-4.3,6.8-5.7,8.1c0,0-0.1,0-0.1,0c-1.2,0.2-2.3,0.4-3.5,0.6C25.5,11.3,30.9,8.9,32,3.9"/>
</g>
</svg>
